<?xml version="1.0" standalone="no"?><!DOCTYPE svg PUBLIC "-//W3C//DTD SVG 1.1//EN" "http://www.w3.org/Graphics/SVG/1.1/DTD/svg11.dtd"><svg t="1555162985886" class="icon" style="" viewBox="0 0 1024 1024" version="1.1" xmlns="http://www.w3.org/2000/svg" p-id="2118" xmlns:xlink="http://www.w3.org/1999/xlink" width="200" height="200"><defs><style type="text/css"></style></defs><path d="M311.341221 594.456424a48.739303 48.739303 0 0 1-48.739303 48.739303 48.739303 48.739303 0 0 1-48.739302-48.739303V118.90659A48.739303 48.739303 0 0 1 262.601918 70.167287a48.739303 48.739303 0 0 1 48.739303 48.739303zM436.150277 594.456424a48.739303 48.739303 0 0 1-48.739302 48.739303 48.739303 48.739303 0 0 1-48.739303-48.739303V118.90659a48.739303 48.739303 0 0 1 48.739303-48.739303 48.739303 48.739303 0 0 1 48.739302 48.739303zM560.959334 594.456424a48.739303 48.739303 0 0 1-48.739303 48.739303A48.739303 48.739303 0 0 1 463.02522 594.456424V118.90659a48.739303 48.739303 0 0 1 49.194811-48.739303 48.739303 48.739303 0 0 1 48.739303 48.739303zM685.312882 594.456424a48.739303 48.739303 0 0 1-48.739303 48.739303 48.739303 48.739303 0 0 1-48.739303-48.739303V118.90659a48.739303 48.739303 0 0 1 48.739303-48.739303 48.739303 48.739303 0 0 1 48.739303 48.739303zM810.121938 594.456424a48.739303 48.739303 0 0 1-48.739303 48.739303 48.739303 48.739303 0 0 1-48.739303-48.739303V118.90659a48.739303 48.739303 0 0 1 48.739303-48.739303 48.739303 48.739303 0 0 1 48.739303 48.739303z" fill="#E9A142" p-id="2119"></path><path d="M249.392201 524.763776a48.739303 48.739303 0 0 1-48.739303 48.739303 48.739303 48.739303 0 0 1-48.739303-48.739303V48.758434A48.739303 48.739303 0 0 1 200.19739 0.019131a48.739303 48.739303 0 0 1 49.194811 48.739303zM371.923719 524.763776a48.739303 48.739303 0 0 1-45.55075 48.739303 48.739303 48.739303 0 0 1-50.105825-48.739303V48.758434A48.739303 48.739303 0 0 1 326.372969 0.019131a48.739303 48.739303 0 0 1 45.55075 48.739303zM498.554805 524.763776a48.739303 48.739303 0 0 1-48.739302 48.739303 48.739303 48.739303 0 0 1-48.739303-48.739303V48.758434A48.739303 48.739303 0 0 1 449.815503 0.019131a48.739303 48.739303 0 0 1 48.739302 48.739303zM623.363862 524.763776a48.739303 48.739303 0 0 1-48.739303 48.739303 48.739303 48.739303 0 0 1-48.739303-48.739303V48.758434A48.739303 48.739303 0 0 1 574.169051 0.019131a48.739303 48.739303 0 0 1 48.739303 48.739303zM747.71741 524.763776a48.739303 48.739303 0 0 1-48.739303 48.739303 48.739303 48.739303 0 0 1-48.739303-48.739303V48.758434A48.739303 48.739303 0 0 1 698.978107 0.019131a48.739303 48.739303 0 0 1 48.739303 48.739303zM872.981974 524.763776a48.739303 48.739303 0 0 1-48.739303 48.739303 48.739303 48.739303 0 0 1-48.739303-48.739303V48.758434A48.739303 48.739303 0 0 1 823.787163 0.019131 48.739303 48.739303 0 0 1 872.981974 48.758434z" fill="#F6BF53" p-id="2120"></path><path d="M925.365337 361.692089L854.761673 1024h-59.215975a621.767743 621.767743 0 0 0-567.106842 0h-59.215976L98.619217 361.692089z" fill="#ED3D28" p-id="2121"></path><path d="M512.220031 669.615162m-186.758077 0a186.758077 186.758077 0 1 0 373.516153 0 186.758077 186.758077 0 1 0-373.516153 0Z" fill="#EFC98D" p-id="2122"></path></svg>