<?xml version="1.0" standalone="no"?><!DOCTYPE svg PUBLIC "-//W3C//DTD SVG 1.1//EN" "http://www.w3.org/Graphics/SVG/1.1/DTD/svg11.dtd"><svg class="icon" width="200px" height="194.68px" viewBox="0 0 1052 1024" version="1.1" xmlns="http://www.w3.org/2000/svg"><path d="M212.186794 696.11747m-206.75808 47.315945a212.103047 212.103047 0 1 0 413.516161-94.631889 212.103047 212.103047 0 1 0-413.516161 94.631889Z" fill="#9E1A2B" /><path d="M510.577328 787.239501m-227.174049 51.988076a233.046795 233.046795 0 1 0 454.348098-103.976151 233.046795 233.046795 0 1 0-454.348098 103.976151Z" fill="#B01A3D" /><path d="M163.163527 900.341639a204.106343 204.106343 0 0 0 95.57965 0 190.397708 190.397708 0 0 0 41.125905-13.708635A242.185885 242.185885 0 0 1 283.114083 837.891191a228.47725 228.47725 0 0 1 27.798066-172.881119z" fill="#CFAA90" /><path d="M609.455755 13.469115a49.8842 49.8842 0 0 0-70.827947 2.665568L484.935654 76.300358a49.122609 49.122609 0 0 0-12.185453 38.079542A871.259912 871.259912 0 0 0 228.660339 526.019745a27.036475 27.036475 0 0 0 19.420566 32.748406h6.473522a27.036475 27.036475 0 0 0 26.274884-20.182157 832.41878 832.41878 0 0 1 182.020209-337.765535 745.597425 745.597425 0 0 0 10.662272 424.206094 27.036475 27.036475 0 0 0 25.513292 18.27818 24.370907 24.370907 0 0 0 8.758295 0 27.036475 27.036475 0 0 0 16.754998-34.271587A685.431749 685.431749 0 0 1 533.296672 157.028987a49.122609 49.122609 0 0 0 25.513293-14.089431l54.072949-58.642494A50.264995 50.264995 0 0 0 609.455755 13.469115z" fill="#E3B057" /><path d="M545.482125 66.399678a434.48757 434.48757 0 0 0 136.324759 359.470872 413.924617 413.924617 0 0 0 365.182804 97.864422 434.106774 434.106774 0 0 0-136.705554-359.090077 414.305413 414.305413 0 0 0-364.802009-98.245217z" fill="#69A63B" /><path d="M545.482125 66.399678a434.106774 434.106774 0 0 0 136.324759 359.470872 414.305413 414.305413 0 0 0 365.182804 97.864422l-175.546687-157.268507-13.327839 98.245218L837.933005 333.71806z" fill="#BAD985" /></svg>