<?xml version="1.0" standalone="no"?><!DOCTYPE svg PUBLIC "-//W3C//DTD SVG 1.1//EN" "http://www.w3.org/Graphics/SVG/1.1/DTD/svg11.dtd"><svg class="icon" width="200px" height="200.00px" viewBox="0 0 1024 1024" version="1.1" xmlns="http://www.w3.org/2000/svg"><path d="M759.654284 303.551175l-10.86884 132.366945-18.244125 223.587566-29.112964 364.494314H322.571645l-11.645186-144.400303-16.691432-204.955269-29.889311-371.093253h495.308568z" fill="#ED3D28" /><path d="M240.667172 239.890826h542.665656v63.660349H240.667172z" fill="#E5E5E5" /><path d="M270.556482 213.495072h483.275209v28.336619H270.556482z" fill="#E5E5E5" /><path d="M512 657.952995m-141.683093 0a141.683093 141.683093 0 1 0 283.366186 0 141.683093 141.683093 0 1 0-283.366186 0Z" fill="#EFC98D" /><path d="M386.620167 0a56.285064 56.285064 0 0 0-56.285065 56.285064v155.269144h38.817286v-155.269144A16.30326 16.30326 0 0 1 386.620167 38.817286h246.489765V0z" fill="#AD8A80" /></svg>