<?xml version="1.0" standalone="no"?><!DOCTYPE svg PUBLIC "-//W3C//DTD SVG 1.1//EN" "http://www.w3.org/Graphics/SVG/1.1/DTD/svg11.dtd"><svg class="icon" width="200px" height="200.00px" viewBox="0 0 1024 1024" version="1.1" xmlns="http://www.w3.org/2000/svg"><path d="M424.041109 215.10729l0.201635-148.000539 57.667785 0.080654-0.201636 148.000539z" fill="#C7AB5D" /><path d="M899.78017 576.276997A448.034328 448.034328 0 1 1 281.968657 161.310909a314.551554 314.551554 0 0 1 30.648613-11.291595 127.836978 127.836978 0 0 1 31.455155-3.629441A135.09586 135.09586 0 0 1 452.955655 201.638031a135.499131 135.499131 0 0 1 109.286502-54.844886 133.079504 133.079504 0 0 1 31.051884 4.032712 318.584266 318.584266 0 0 1 30.648613 11.291594 447.227786 447.227786 0 0 1 275.837516 414.562817z" fill="#ABC717" /><path d="M447.713129 145.18006a364.960457 364.960457 0 0 0 288.338925 146.387454 347.619794 347.619794 0 0 0 282.289856-145.580912A364.960457 364.960457 0 0 0 732.019341 0.00242 348.426336 348.426336 0 0 0 447.713129 145.18006z" fill="#91A63B" /><path d="M447.713129 145.18006a362.9441 362.9441 0 0 0 287.935653 146.387454 348.023065 348.023065 0 0 0 282.289856-145.580912h-198.409441l47.182733 68.959379-83.880415-68.959379z" fill="#D6E0BF" /></svg>