<?xml version="1.0" standalone="no"?><!DOCTYPE svg PUBLIC "-//W3C//DTD SVG 1.1//EN" "http://www.w3.org/Graphics/SVG/1.1/DTD/svg11.dtd"><svg class="icon" width="200px" height="200.00px" viewBox="0 0 1024 1024" version="1.1" xmlns="http://www.w3.org/2000/svg"><path d="M432.39801 936.437811a87.562189 79.60199 90 1 0 159.20398 0 87.562189 79.60199 90 1 0-159.20398 0Z" fill="#8C6196" /><path d="M364.577114 829.134328a87.562189 79.60199 90 1 0 159.203981 0 87.562189 79.60199 90 1 0-159.203981 0Z" fill="#9E70A1" /><path d="M504.676617 829.134328a87.562189 79.60199 90 1 0 159.20398 0 87.562189 79.60199 90 1 0-159.20398 0Z" fill="#9E70A1" /><path d="M292.298507 711.004975a87.562189 79.60199 90 1 0 159.203981 0 87.562189 79.60199 90 1 0-159.203981 0Z" fill="#8C6196" /><path d="M432.39801 711.004975a87.562189 79.60199 90 1 0 159.20398 0 87.562189 79.60199 90 1 0-159.20398 0Z" fill="#8C6196" /><path d="M572.497512 711.004975a87.562189 79.60199 90 1 0 159.203981 0 87.562189 79.60199 90 1 0-159.203981 0Z" fill="#8C6196" /><path d="M224.79602 603.701493a87.562189 79.60199 90 1 0 159.20398 0 87.562189 79.60199 90 1 0-159.20398 0Z" fill="#9E70A1" /><path d="M364.577114 603.701493a87.562189 79.60199 90 1 0 159.203981 0 87.562189 79.60199 90 1 0-159.203981 0Z" fill="#9E70A1" /><path d="M504.676617 603.701493a87.562189 79.60199 90 1 0 159.20398 0 87.562189 79.60199 90 1 0-159.20398 0Z" fill="#9E70A1" /><path d="M644.776119 603.701493a87.562189 79.60199 90 1 0 159.203981 0 87.562189 79.60199 90 1 0-159.203981 0Z" fill="#9E70A1" /><path d="M152.517413 485.572139a87.562189 79.60199 90 1 0 159.20398 0 87.562189 79.60199 90 1 0-159.20398 0Z" fill="#8C6196" /><path d="M292.298507 485.572139a87.562189 79.60199 90 1 0 159.203981 0 87.562189 79.60199 90 1 0-159.203981 0Z" fill="#8C6196" /><path d="M432.39801 485.572139a87.562189 79.60199 90 1 0 159.20398 0 87.562189 79.60199 90 1 0-159.20398 0Z" fill="#8C6196" /><path d="M572.497512 485.572139a87.562189 79.60199 90 1 0 159.203981 0 87.562189 79.60199 90 1 0-159.203981 0Z" fill="#8C6196" /><path d="M712.278607 485.572139a87.562189 79.60199 90 1 0 159.20398 0 87.562189 79.60199 90 1 0-159.20398 0Z" fill="#8C6196" /><path d="M224.79602 379.542289a87.562189 79.60199 90 1 0 159.20398 0 87.562189 79.60199 90 1 0-159.20398 0Z" fill="#9E70A1" /><path d="M364.577114 379.542289a87.562189 79.60199 90 1 0 159.203981 0 87.562189 79.60199 90 1 0-159.203981 0Z" fill="#9E70A1" /><path d="M504.676617 379.542289a87.562189 79.60199 90 1 0 159.20398 0 87.562189 79.60199 90 1 0-159.20398 0Z" fill="#9E70A1" /><path d="M644.776119 379.542289a87.562189 79.60199 90 1 0 159.203981 0 87.562189 79.60199 90 1 0-159.203981 0Z" fill="#9E70A1" /><path d="M622.169154 162.069652a134.686567 134.686567 0 0 0-39.800995 6.049751 159.20398 159.20398 0 0 0 2.547264-27.701493A172.258706 172.258706 0 0 0 512.636816 0 181.174129 181.174129 0 0 0 439.084577 142.965174a163.661692 163.661692 0 0 0 1.910448 26.109453 134.368159 134.368159 0 0 0-151.243781 49.671642 142.00995 142.00995 0 0 0 112.079602 56.995025h85.333333V254.726368a23.562189 23.562189 0 0 1 2.547264-11.144278 23.880597 23.880597 0 0 1 13.054726-12.099503 23.562189 23.562189 0 0 1 10.189055-2.228856 24.199005 24.199005 0 0 1 12.41791 3.502488 25.791045 25.791045 0 0 1 5.094528 4.139303 18.467662 18.467662 0 0 1 2.865671 3.502488 24.199005 24.199005 0 0 1 4.139304 14.00995v21.651741h87.880597a135.641791 135.641791 0 0 0 110.169154-56.676616 142.646766 142.646766 0 0 0-113.353234-57.313433z" fill="#82A63B" /></svg>