<?xml version="1.0" standalone="no"?><!DOCTYPE svg PUBLIC "-//W3C//DTD SVG 1.1//EN" "http://www.w3.org/Graphics/SVG/1.1/DTD/svg11.dtd"><svg class="icon" width="200px" height="185.00px" viewBox="0 0 1107 1024" version="1.1" xmlns="http://www.w3.org/2000/svg"><path d="M553.752883 276.243822l-404.032949 198.220758c126.523888 54.405272 281.726524 150.563427 281.726524 283.413509v266.121911H674.794069V759.143328c0-132.850082 156.046129-229.429984 281.726524-283.413509z m-122.306425 241.660626l-59.466227-48.079077 59.887973-42.17463z m245.034596 0v-88.566721l59.466228 42.174629z" fill="#AACB64" /><path d="M553.752883 276.243822l-404.032949 198.220758a709.799012 709.799012 0 0 1 201.172982 123.99341 473.621087 473.621087 0 0 1 410.78089-4.217463 719.920923 719.920923 0 0 1 196.533772-119.775947z m-122.306425 241.660626l-59.466227-48.079077 59.887973-42.17463z m245.034596 0v-88.566721l59.466228 42.174629z" fill="#E3E6D9" /><path d="M553.752883 245.034596m-245.034596 0a245.034596 245.034596 0 1 0 490.069192 0 245.034596 245.034596 0 1 0-490.069192 0Z" fill="#4D935C" /><path d="M808.487644 289.739703m-200.329489 0a200.329489 200.329489 0 1 0 400.658978 0 200.329489 200.329489 0 1 0-400.658978 0Z" fill="#4D935C" /><path d="M958.207578 373.667216m-149.719934 0a149.719934 149.719934 0 1 0 299.439868 0 149.719934 149.719934 0 1 0-299.439868 0Z" fill="#4D935C" /><path d="M149.719934 373.667216m-149.719934 0a149.719934 149.719934 0 1 0 299.439868 0 149.719934 149.719934 0 1 0-299.439868 0Z" fill="#4D935C" /><path d="M299.439868 289.739703m-200.329489 0a200.329489 200.329489 0 1 0 400.658978 0 200.329489 200.329489 0 1 0-400.658978 0Z" fill="#4D935C" /><path d="M539.413509 106.701812m-21.087315 0a21.087315 21.087315 0 1 0 42.17463 0 21.087315 21.087315 0 1 0-42.17463 0Z" fill="#AACB64" /><path d="M628.823723 168.276771m-16.026359 0a16.026359 16.026359 0 1 0 32.052718 0 16.026359 16.026359 0 1 0-32.052718 0Z" fill="#AACB64" /><path d="M460.546952 296.90939m-16.869852 0a16.869852 16.869852 0 1 0 33.739704 0 16.869852 16.869852 0 1 0-33.739704 0Z" fill="#AACB64" /><path d="M225.634267 205.812191m-18.556837 0a18.556837 18.556837 0 1 0 37.113674 0 18.556837 18.556837 0 1 0-37.113674 0Z" fill="#AACB64" /><path d="M343.723229 344.144975m-16.869852 0a16.869852 16.869852 0 1 0 33.739704 0 16.869852 16.869852 0 1 0-33.739704 0Z" fill="#AACB64" /><path d="M73.383855 383.789127m-21.087315 0a21.087315 21.087315 0 1 0 42.17463 0 21.087315 21.087315 0 1 0-42.17463 0Z" fill="#AACB64" /><path d="M149.719934 383.789127m-14.339374 0a14.339374 14.339374 0 1 0 28.678748 0 14.339374 14.339374 0 1 0-28.678748 0Z" fill="#AACB64" /><path d="M769.265239 180.085667m-15.604613 0a15.604613 15.604613 0 1 0 31.209226 0 15.604613 15.604613 0 1 0-31.209226 0Z" fill="#AACB64" /><path d="M654.971993 280.039539m-13.074135 0a13.074135 13.074135 0 1 0 26.148271 0 13.074135 13.074135 0 1 0-26.148271 0Z" fill="#AACB64" /><path d="M286.365733 217.199341m-13.074135 0a13.074135 13.074135 0 1 0 26.14827 0 13.074135 13.074135 0 1 0-26.14827 0Z" fill="#AACB64" /><path d="M769.265239 357.640857m-13.074135 0a13.074135 13.074135 0 1 0 26.14827 0 13.074135 13.074135 0 1 0-26.14827 0Z" fill="#AACB64" /><path d="M825.779242 152.250412m-13.074135 0a13.074135 13.074135 0 1 0 26.14827 0 13.074135 13.074135 0 1 0-26.14827 0Z" fill="#AACB64" /><path d="M842.649094 327.275124m-16.869852 0a16.869852 16.869852 0 1 0 33.739704 0 16.869852 16.869852 0 1 0-33.739704 0Z" fill="#AACB64" /><path d="M999.960461 280.039539m-17.291598 0a17.291598 17.291598 0 1 0 34.583196 0 17.291598 17.291598 0 1 0-34.583196 0Z" fill="#AACB64" /><path d="M992.369028 426.807249m-16.448105 0a16.448105 16.448105 0 1 0 32.89621 0 16.448105 16.448105 0 1 0-32.89621 0Z" fill="#AACB64" /><path d="M1050.14827 344.144975m-13.074135 0a13.074135 13.074135 0 1 0 26.14827 0 13.074135 13.074135 0 1 0-26.14827 0Z" fill="#AACB64" /></svg>